<?xml version="1.0" encoding="UTF-8" standalone="no"?>
<svg
   width="32"
   height="48"
   viewBox="0 0 32 48"
   fill="none"
   version="1.1"
   id="svg4"
   sodipodi:docname="Vector.svg"
   inkscape:version="1.2.1 (9c6d41e410, 2022-07-14)"
   xmlns:inkscape="http://www.inkscape.org/namespaces/inkscape"
   xmlns:sodipodi="http://sodipodi.sourceforge.net/DTD/sodipodi-0.dtd"
   xmlns="http://www.w3.org/2000/svg"
   xmlns:svg="http://www.w3.org/2000/svg">
  <defs
     id="defs8" />
  <sodipodi:namedview
     id="namedview6"
     pagecolor="#ffffff"
     bordercolor="#000000"
     borderopacity="0.25"
     inkscape:showpageshadow="2"
     inkscape:pageopacity="0.0"
     inkscape:pagecheckerboard="0"
     inkscape:deskcolor="#d1d1d1"
     showgrid="false"
     inkscape:zoom="16.75"
     inkscape:cx="13.373134"
     inkscape:cy="24.029851"
     inkscape:window-width="3200"
     inkscape:window-height="1771"
     inkscape:window-x="1911"
     inkscape:window-y="-9"
     inkscape:window-maximized="1"
     inkscape:current-layer="svg4" />
  <path
     fill-rule="evenodd"
     clip-rule="evenodd"
     d="m 23.853,23.6529 c -0.0434,0.2782 -0.1492,0.543 -0.3095,0.7746 -0.1603,0.2315 -0.3709,0.4237 -0.616,0.5623 -0.4937,0.3188 -0.9256,0.4782 -1.3626,0.6376 -0.9307,0.3214 -1.9103,0.6428 -2.9464,1.0156 -1.0926,0.3727 -2.0722,0.7455 -2.9463,1.0155 -1.0901,0.3728 -2.1262,0.6941 -3.1109,1.0669 -0.7408,0.3171 -1.4367,0.7302 -2.0696,1.229 -0.58866,0.5333 -1.10238,1.1439 -1.52716,1.8151 -0.43707,0.7455 -0.71216,1.7071 -0.71216,2.828 0,2.2445 0.54504,3.9516 1.63771,5.0186 1.09011,1.1235 3.11091,1.6557 6.10601,1.6557 3.0544,0 5.1266,-0.5862 6.2218,-1.7611 1.0875,-1.175 1.6325,-2.8281 1.6325,-4.962 V 23.6529 Z M 15.9987,0 c 5.3476,0 9.2735,1.01553 11.7802,3.09802 2.5093,2.03106 3.7639,4.64317 3.7639,7.73858 v 26.3782 c 0,1.0669 -0.216,2.2419 -0.5965,3.5222 -0.3856,1.2855 -1.1466,2.4579 -2.3473,3.5222 -1.1441,1.0721 -2.7252,1.9797 -4.7434,2.6738 C 21.8374,47.6272 19.2201,48 16.0013,48 12.7876,48 10.16518,47.6272 8.14954,46.933 6.1339,46.2389 4.55018,45.3313 3.4061,44.2592 2.3418,43.3001 1.53554,42.089 1.061378,40.737 0.675732,39.4592 0.4572,38.2843 0.4572,37.2174 V 33.001 c 0,-2.2445 0.599036,-4.327 1.79968,-6.1447 1.20064,-1.8665 2.88977,-3.1468 5.07252,-3.949 1.09009,-0.3728 2.34473,-0.7455 3.7613,-1.2263 1.4192,-0.4834 2.7253,-0.9641 4.0364,-1.3883 1.3112,-0.4294 2.4553,-0.8587 3.4349,-1.2341 0.5911,-0.2365 1.1915,-0.4492 1.7996,-0.6376 l 0.9822,-0.4808 c 0.3856,-0.2134 0.7635,-0.5347 1.1466,-0.9615 0.3805,-0.4242 0.707,-0.905 0.9821,-1.4398 0.2907,-0.579 0.4404,-1.2186 0.4371,-1.8665 V 11.9627 C 23.9136,11.3361 23.7821,10.716 23.5239,10.145 23.308,9.5023 22.8709,8.91612 22.2719,8.38393 21.6728,7.84917 20.8527,7.42239 19.8732,7.09845 18.891,6.78222 17.585,6.62025 16.1093,6.62025 c -3.0544,0 -5.0726,0.59132 -6.16265,1.8151 -0.92555,1.06953 -1.4706,2.40385 -1.57858,3.89755 0,0.3214 -0.27252,0.5348 -0.6016,0.5348 l -6.651102,0.108 C 0.957377,12.9764 0.805509,12.9146 0.692832,12.8039 0.580156,12.6931 0.5157941,12.5423 0.5137613,12.3844 v -1.5426 c 0,-1.4989 0.2750937,-2.88722 0.8741297,-4.22155 C 1.9895,5.28334 2.91762,4.16497 4.16968,3.20086 5.42431,2.24189 7.06202,1.44231 9.02367,0.907552 10.9339,0.26481 13.2786,0 16.0038,0 Z"
     fill="#0a3871"
     id="path2" />
</svg>
